<mxfile host="app.diagrams.net" agent="Mozilla/5.0 (Windows NT 10.0; Win64; x64) AppleWebKit/537.36 (KHTML, like Gecko) Chrome/131.0.0.0 Safari/537.36" version="26.0.4">
  <diagram name="Page-1" id="03018318-947c-dd8e-b7a3-06fadd420f32">
    <mxGraphModel dx="1434" dy="738" grid="1" gridSize="10" guides="1" tooltips="1" connect="1" arrows="1" fold="1" page="1" pageScale="1" pageWidth="1100" pageHeight="850" background="none" math="0" shadow="0">
      <root>
        <mxCell id="0" />
        <mxCell id="1" parent="0" />
        <mxCell id="677b7b8949515195-1" value="" style="whiteSpace=wrap;html=1;rounded=0;shadow=0;labelBackgroundColor=none;strokeColor=#000000;strokeWidth=1;fillColor=none;fontFamily=Verdana;fontSize=12;fontColor=#000000;align=center;comic=1;" parent="1" vertex="1">
          <mxGeometry x="20" y="70" width="1060" height="570" as="geometry" />
        </mxCell>
        <mxCell id="677b7b8949515195-10" value="" style="whiteSpace=wrap;html=1;rounded=0;shadow=0;labelBackgroundColor=none;strokeWidth=1;fillColor=none;fontFamily=Verdana;fontSize=12;align=center;comic=1;" parent="1" vertex="1">
          <mxGeometry x="30" y="90" width="1040" height="50" as="geometry" />
        </mxCell>
        <mxCell id="HjhiuZLruFTGGM_Ddv_2-108" value="" style="shape=table;startSize=0;container=1;collapsible=0;childLayout=tableLayout;fontSize=16;" parent="1" vertex="1">
          <mxGeometry x="30" y="200" width="1040" height="157" as="geometry" />
        </mxCell>
        <mxCell id="HjhiuZLruFTGGM_Ddv_2-172" style="shape=tableRow;horizontal=0;startSize=0;swimlaneHead=0;swimlaneBody=0;strokeColor=inherit;top=0;left=0;bottom=0;right=0;collapsible=0;dropTarget=0;fillColor=none;points=[[0,0.5],[1,0.5]];portConstraint=eastwest;fontSize=16;" parent="HjhiuZLruFTGGM_Ddv_2-108" vertex="1">
          <mxGeometry width="1040" height="53" as="geometry" />
        </mxCell>
        <mxCell id="HjhiuZLruFTGGM_Ddv_2-173" value="&lt;b&gt;Name&lt;/b&gt;" style="shape=partialRectangle;html=1;whiteSpace=wrap;connectable=0;overflow=hidden;top=0;left=0;bottom=0;right=0;pointerEvents=1;fontSize=16;" parent="HjhiuZLruFTGGM_Ddv_2-172" vertex="1">
          <mxGeometry width="552" height="53" as="geometry">
            <mxRectangle width="552" height="53" as="alternateBounds" />
          </mxGeometry>
        </mxCell>
        <mxCell id="HjhiuZLruFTGGM_Ddv_2-174" value="&lt;b&gt;Birthdate&lt;/b&gt;" style="shape=partialRectangle;html=1;whiteSpace=wrap;connectable=0;overflow=hidden;top=0;left=0;bottom=0;right=0;pointerEvents=1;fontSize=16;" parent="HjhiuZLruFTGGM_Ddv_2-172" vertex="1">
          <mxGeometry x="552" width="282" height="53" as="geometry">
            <mxRectangle width="282" height="53" as="alternateBounds" />
          </mxGeometry>
        </mxCell>
        <mxCell id="HjhiuZLruFTGGM_Ddv_2-175" style="shape=partialRectangle;html=1;whiteSpace=wrap;connectable=0;overflow=hidden;top=0;left=0;bottom=0;right=0;pointerEvents=1;fontSize=16;fontColor=#3399FF;" parent="HjhiuZLruFTGGM_Ddv_2-172" vertex="1">
          <mxGeometry x="834" width="206" height="53" as="geometry">
            <mxRectangle width="206" height="53" as="alternateBounds" />
          </mxGeometry>
        </mxCell>
        <mxCell id="HjhiuZLruFTGGM_Ddv_2-113" value="" style="shape=tableRow;horizontal=0;startSize=0;swimlaneHead=0;swimlaneBody=0;strokeColor=inherit;top=0;left=0;bottom=0;right=0;collapsible=0;dropTarget=0;fillColor=none;points=[[0,0.5],[1,0.5]];portConstraint=eastwest;fontSize=16;" parent="HjhiuZLruFTGGM_Ddv_2-108" vertex="1">
          <mxGeometry y="53" width="1040" height="53" as="geometry" />
        </mxCell>
        <mxCell id="HjhiuZLruFTGGM_Ddv_2-114" value="Astral Whisper" style="shape=partialRectangle;html=1;whiteSpace=wrap;connectable=0;overflow=hidden;top=0;left=0;bottom=0;right=0;pointerEvents=1;fontSize=16;" parent="HjhiuZLruFTGGM_Ddv_2-113" vertex="1">
          <mxGeometry width="552" height="53" as="geometry">
            <mxRectangle width="552" height="53" as="alternateBounds" />
          </mxGeometry>
        </mxCell>
        <mxCell id="HjhiuZLruFTGGM_Ddv_2-164" value="2006-06-30" style="shape=partialRectangle;html=1;whiteSpace=wrap;connectable=0;overflow=hidden;top=0;left=0;bottom=0;right=0;pointerEvents=1;fontSize=16;" parent="HjhiuZLruFTGGM_Ddv_2-113" vertex="1">
          <mxGeometry x="552" width="282" height="53" as="geometry">
            <mxRectangle width="282" height="53" as="alternateBounds" />
          </mxGeometry>
        </mxCell>
        <mxCell id="HjhiuZLruFTGGM_Ddv_2-122" value="Details" style="shape=partialRectangle;html=1;whiteSpace=wrap;connectable=0;overflow=hidden;top=0;left=0;bottom=0;right=0;pointerEvents=1;fontSize=16;fontColor=#3399FF;" parent="HjhiuZLruFTGGM_Ddv_2-113" vertex="1">
          <mxGeometry x="834" width="206" height="53" as="geometry">
            <mxRectangle width="206" height="53" as="alternateBounds" />
          </mxGeometry>
        </mxCell>
        <mxCell id="HjhiuZLruFTGGM_Ddv_2-117" value="" style="shape=tableRow;horizontal=0;startSize=0;swimlaneHead=0;swimlaneBody=0;strokeColor=inherit;top=0;left=0;bottom=0;right=0;collapsible=0;dropTarget=0;fillColor=none;points=[[0,0.5],[1,0.5]];portConstraint=eastwest;fontSize=16;" parent="HjhiuZLruFTGGM_Ddv_2-108" vertex="1">
          <mxGeometry y="106" width="1040" height="51" as="geometry" />
        </mxCell>
        <mxCell id="HjhiuZLruFTGGM_Ddv_2-118" value="Aurora" style="shape=partialRectangle;html=1;whiteSpace=wrap;connectable=0;overflow=hidden;top=0;left=0;bottom=0;right=0;pointerEvents=1;fontSize=16;fillColor=#eeeeee;strokeColor=#36393d;" parent="HjhiuZLruFTGGM_Ddv_2-117" vertex="1">
          <mxGeometry width="552" height="51" as="geometry">
            <mxRectangle width="552" height="51" as="alternateBounds" />
          </mxGeometry>
        </mxCell>
        <mxCell id="HjhiuZLruFTGGM_Ddv_2-165" value="2006-12-01" style="shape=partialRectangle;html=1;whiteSpace=wrap;connectable=0;overflow=hidden;top=0;left=0;bottom=0;right=0;pointerEvents=1;fontSize=16;fillColor=#eeeeee;strokeColor=#36393d;" parent="HjhiuZLruFTGGM_Ddv_2-117" vertex="1">
          <mxGeometry x="552" width="282" height="51" as="geometry">
            <mxRectangle width="282" height="51" as="alternateBounds" />
          </mxGeometry>
        </mxCell>
        <mxCell id="HjhiuZLruFTGGM_Ddv_2-123" value="Details" style="shape=partialRectangle;html=1;whiteSpace=wrap;connectable=0;overflow=hidden;top=0;left=0;bottom=0;right=0;pointerEvents=1;fontSize=16;fillColor=#eeeeee;strokeColor=#36393d;fontColor=#3399FF;" parent="HjhiuZLruFTGGM_Ddv_2-117" vertex="1">
          <mxGeometry x="834" width="206" height="51" as="geometry">
            <mxRectangle width="206" height="51" as="alternateBounds" />
          </mxGeometry>
        </mxCell>
        <mxCell id="HjhiuZLruFTGGM_Ddv_2-159" value="Search" style="strokeWidth=1;shadow=0;dashed=0;align=center;html=1;shape=mxgraph.mockup.forms.searchBox;strokeColor=#999999;mainText=;strokeColor2=#008cff;fontColor=#666666;fontSize=17;align=left;spacingLeft=3;whiteSpace=wrap;" parent="1" vertex="1">
          <mxGeometry x="290" y="100" width="150" height="30" as="geometry" />
        </mxCell>
        <mxCell id="HjhiuZLruFTGGM_Ddv_2-163" value="&lt;font style=&quot;font-size: 17px;&quot;&gt;Apply&lt;/font&gt;" style="rounded=1;fillColor=#0057D8;strokeColor=none;html=1;whiteSpace=wrap;fontColor=#ffffff;align=center;verticalAlign=middle;fontStyle=0;fontSize=12;sketch=0;" parent="1" vertex="1">
          <mxGeometry x="690" y="97" width="86" height="33" as="geometry" />
        </mxCell>
        <mxCell id="HjhiuZLruFTGGM_Ddv_2-176" value="&lt;font style=&quot;font-size: 14px;&quot;&gt;Order By:&lt;/font&gt;" style="text;html=1;align=center;verticalAlign=middle;whiteSpace=wrap;rounded=0;" parent="1" vertex="1">
          <mxGeometry x="40" y="98" width="70" height="30" as="geometry" />
        </mxCell>
        <mxCell id="HjhiuZLruFTGGM_Ddv_2-177" value="&lt;font style=&quot;font-size: 17px;&quot;&gt;Name&lt;/font&gt;" style="html=1;shadow=0;dashed=0;shape=mxgraph.bootstrap.rrect;rSize=5;strokeColor=none;strokeWidth=1;fillColor=#6C767D;fontColor=#ffffff;whiteSpace=wrap;align=right;verticalAlign=middle;fontStyle=0;fontSize=14;spacingRight=20;" parent="1" vertex="1">
          <mxGeometry x="110" y="93" width="140" height="40" as="geometry" />
        </mxCell>
        <mxCell id="HjhiuZLruFTGGM_Ddv_2-178" value="" style="shape=triangle;direction=south;fillColor=#ffffff;strokeColor=none;perimeter=none;" parent="HjhiuZLruFTGGM_Ddv_2-177" vertex="1">
          <mxGeometry x="1" y="0.5" width="10" height="5" relative="1" as="geometry">
            <mxPoint x="-17" y="-2.5" as="offset" />
          </mxGeometry>
        </mxCell>
        <mxCell id="vkX5BvwNz0js688uhqi4-1" value="&lt;font style=&quot;font-size: 18px;&quot;&gt;fourthwallacademy.com/Admissions/Students&lt;/font&gt;" style="html=1;strokeWidth=1;shadow=0;dashed=0;shape=mxgraph.ios7ui.url;fillColor=#e0e0e0;strokeColor=#c0c0c0;buttonText=;strokeColor2=#222222;fontColor=#222222;fontSize=8;spacingTop=2;align=center;whiteSpace=wrap;" parent="1" vertex="1">
          <mxGeometry x="25" y="20" width="1050" height="40" as="geometry" />
        </mxCell>
        <mxCell id="LuvCom9e1wncV61Eayn8-1" value="Add Student" style="html=1;shadow=0;dashed=0;shape=mxgraph.bootstrap.rrect;rSize=5;strokeColor=none;strokeWidth=1;fillColor=none;fontColor=#0085FC;whiteSpace=wrap;align=center;verticalAlign=middle;spacingLeft=0;fontStyle=0;fontSize=16;spacing=5;" parent="1" vertex="1">
          <mxGeometry x="30" y="152" width="150" height="40" as="geometry" />
        </mxCell>
        <mxCell id="vRRGCCHdPiWQOJCjs1Qa-1" value="A" style="html=1;shadow=0;dashed=0;shape=mxgraph.bootstrap.rrect;rSize=5;strokeColor=none;strokeWidth=1;fillColor=#6C767D;fontColor=#ffffff;whiteSpace=wrap;align=right;verticalAlign=middle;fontStyle=0;fontSize=14;spacingRight=20;" parent="1" vertex="1">
          <mxGeometry x="570" y="100" width="50" height="33" as="geometry" />
        </mxCell>
        <mxCell id="vRRGCCHdPiWQOJCjs1Qa-2" value="" style="shape=triangle;direction=south;fillColor=#ffffff;strokeColor=none;perimeter=none;" parent="vRRGCCHdPiWQOJCjs1Qa-1" vertex="1">
          <mxGeometry x="1" y="0.5" width="10" height="5" relative="1" as="geometry">
            <mxPoint x="-17" y="-2.5" as="offset" />
          </mxGeometry>
        </mxCell>
        <mxCell id="vRRGCCHdPiWQOJCjs1Qa-3" value="&lt;font style=&quot;font-size: 16px;&quot;&gt;Starts with:&lt;/font&gt;" style="text;html=1;align=center;verticalAlign=middle;whiteSpace=wrap;rounded=0;" parent="1" vertex="1">
          <mxGeometry x="480" y="101.5" width="90" height="30" as="geometry" />
        </mxCell>
      </root>
    </mxGraphModel>
  </diagram>
</mxfile>
